<svg xmlns="http://www.w3.org/2000/svg" viewBox="0 0 64 64">
  <defs>
    <linearGradient id="g" x1="0" y1="0" x2="1" y2="1"><stop stop-color="#b678ff"/><stop offset="1" stop-color="#55deeb"/></linearGradient>
  </defs>
  <rect width="64" height="64" rx="18" fill="#0d0b18"/>
  <rect x="3" y="3" width="58" height="58" rx="16" fill="none" stroke="url(#g)" stroke-width="3"/>
  <path d="M43 20c-3-4-7-6-13-6-10 0-18 8-18 19s8 18 18 18c6 0 11-2 14-7l-6-5c-2 3-4 4-8 4-6 0-10-4-10-10s4-11 10-11c3 0 6 2 8 4z" fill="url(#g)"/>
  <circle cx="47" cy="16" r="4" fill="#55deeb"/>
</svg>
